<svg width="16" height="16" viewBox="0 0 16 16" fill="none" xmlns="http://www.w3.org/2000/svg">
<path d="M8 0C6.94943 0 5.90914 0.206926 4.93853 0.608964C3.96793 1.011 3.08601 1.60028 2.34315 2.34315C0.842855 3.84344 0 5.87827 0 8C0 10.1217 0.842855 12.1566 2.34315 13.6569C3.08601 14.3997 3.96793 14.989 4.93853 15.391C5.90914 15.7931 6.94943 16 8 16C10.1217 16 12.1566 15.1571 13.6569 13.6569C15.1571 12.1566 16 10.1217 16 8C16 6.94943 15.7931 5.90914 15.391 4.93853C14.989 3.96793 14.3997 3.08601 13.6569 2.34315C12.914 1.60028 12.0321 1.011 11.0615 0.608964C10.0909 0.206926 9.05058 0 8 0ZM4.056 13.024C4.4 12.304 6.496 11.6 8 11.6C9.504 11.6 11.6 12.304 11.944 13.024C10.8233 13.9164 9.43262 14.4016 8 14.4C6.512 14.4 5.144 13.888 4.056 13.024ZM13.088 11.864C11.944 10.472 9.168 10 8 10C6.832 10 4.056 10.472 2.912 11.864C2.06106 10.7556 1.59985 9.39734 1.6 8C1.6 4.472 4.472 1.6 8 1.6C11.528 1.6 14.4 4.472 14.4 8C14.4 9.456 13.904 10.8 13.088 11.864ZM8 3.2C6.448 3.2 5.2 4.448 5.2 6C5.2 7.552 6.448 8.8 8 8.8C9.552 8.8 10.8 7.552 10.8 6C10.8 4.448 9.552 3.2 8 3.2ZM8 7.2C7.68174 7.2 7.37652 7.07357 7.15147 6.84853C6.92643 6.62348 6.8 6.31826 6.8 6C6.8 5.68174 6.92643 5.37652 7.15147 5.15147C7.37652 4.92643 7.68174 4.8 8 4.8C8.31826 4.8 8.62348 4.92643 8.84853 5.15147C9.07357 5.37652 9.2 5.68174 9.2 6C9.2 6.31826 9.07357 6.62348 8.84853 6.84853C8.62348 7.07357 8.31826 7.2 8 7.2Z" fill="#808080"/>
</svg>
