<svg width="23" height="22" viewBox="0 0 23 22" fill="none" xmlns="http://www.w3.org/2000/svg">
<path d="M9.743 15.314L5.5 11.07L6.914 9.656L9.743 12.484L15.399 6.827L16.814 8.242L9.743 15.314Z" fill="white"/>
<path fill-rule="evenodd" clip-rule="evenodd" d="M0.5 11C0.5 4.925 5.425 0 11.5 0C17.575 0 22.5 4.925 22.5 11C22.5 17.075 17.575 22 11.5 22C5.425 22 0.5 17.075 0.5 11ZM11.5 20C10.3181 20 9.14778 19.7672 8.05585 19.3149C6.96392 18.8626 5.97177 18.1997 5.13604 17.364C4.30031 16.5282 3.63738 15.5361 3.18508 14.4442C2.73279 13.3522 2.5 12.1819 2.5 11C2.5 9.8181 2.73279 8.64778 3.18508 7.55585C3.63738 6.46392 4.30031 5.47177 5.13604 4.63604C5.97177 3.80031 6.96392 3.13738 8.05585 2.68508C9.14778 2.23279 10.3181 2 11.5 2C13.8869 2 16.1761 2.94821 17.864 4.63604C19.5518 6.32387 20.5 8.61305 20.5 11C20.5 13.3869 19.5518 15.6761 17.864 17.364C16.1761 19.0518 13.8869 20 11.5 20Z" fill="white"/>
</svg>
