<svg width="45" height="43" viewBox="0 0 45 43" fill="none" xmlns="http://www.w3.org/2000/svg">
<ellipse cx="18.383" cy="25" rx="18.383" ry="18" fill="black"/>
<path d="M18 26.1666C16.4529 26.1666 14.9692 25.552 13.8752 24.4581C12.7812 23.3641 12.1667 21.8804 12.1667 20.3333H14.5C14.5 21.2615 14.8687 22.1518 15.5251 22.8082C16.1815 23.4645 17.0717 23.8333 18 23.8333C18.9283 23.8333 19.8185 23.4645 20.4749 22.8082C21.1313 22.1518 21.5 21.2615 21.5 20.3333H23.8333C23.8333 21.8804 23.2188 23.3641 22.1248 24.4581C21.0308 25.552 19.5471 26.1666 18 26.1666ZM18 14.5C18.9283 14.5 19.8185 14.8687 20.4749 15.5251C21.1313 16.1815 21.5 17.0717 21.5 18H14.5C14.5 17.0717 14.8687 16.1815 15.5251 15.5251C16.1815 14.8687 17.0717 14.5 18 14.5ZM26.1667 18H23.8333C23.8333 17.2339 23.6824 16.4754 23.3893 15.7676C23.0961 15.0599 22.6665 14.4168 22.1248 13.8752C21.5831 13.3335 20.9401 12.9038 20.2323 12.6107C19.5246 12.3175 18.766 12.1666 18 12.1666C16.4529 12.1666 14.9692 12.7812 13.8752 13.8752C12.7812 14.9691 12.1667 16.4529 12.1667 18H9.83333C8.53833 18 7.5 19.0383 7.5 20.3333V34.3333C7.5 34.9521 7.74583 35.5456 8.18342 35.9832C8.621 36.4208 9.21449 36.6666 9.83333 36.6666H26.1667C26.7855 36.6666 27.379 36.4208 27.8166 35.9832C28.2542 35.5456 28.5 34.9521 28.5 34.3333V20.3333C28.5 19.7145 28.2542 19.121 27.8166 18.6834C27.379 18.2458 26.7855 18 26.1667 18Z" fill="white"/>
<g filter="url(#filter0_d_683_1705)">
<circle cx="33" cy="11" r="8" fill="white"/>
<path d="M33.0014 13.1C32.4288 13.1 31.8797 12.8788 31.4748 12.4849C31.0699 12.0911 30.8425 11.557 30.8425 11C30.8425 10.443 31.0699 9.9089 31.4748 9.51508C31.8797 9.12125 32.4288 8.9 33.0014 8.9C33.5739 8.9 34.1231 9.12125 34.5279 9.51508C34.9328 9.9089 35.1603 10.443 35.1603 11C35.1603 11.557 34.9328 12.0911 34.5279 12.4849C34.1231 12.8788 33.5739 13.1 33.0014 13.1ZM37.5844 11.582C37.6091 11.39 37.6276 11.198 37.6276 11C37.6276 10.802 37.6091 10.604 37.5844 10.4L38.8859 9.422C39.0031 9.332 39.034 9.17 38.96 9.038L37.7263 6.962C37.6523 6.83 37.4857 6.776 37.35 6.83L35.8141 7.43C35.4934 7.196 35.1603 6.992 34.7717 6.842L34.5434 5.252C34.5309 5.18133 34.4931 5.11726 34.4366 5.07113C34.3802 5.02501 34.3088 4.99981 34.235 5H31.7677C31.6135 5 31.484 5.108 31.4593 5.252L31.2311 6.842C30.8425 6.992 30.5094 7.196 30.1886 7.43L28.6527 6.83C28.517 6.776 28.3504 6.83 28.2764 6.962L27.0428 9.038C26.9626 9.17 26.9996 9.332 27.1168 9.422L28.4183 10.4C28.3936 10.604 28.3751 10.802 28.3751 11C28.3751 11.198 28.3936 11.39 28.4183 11.582L27.1168 12.578C26.9996 12.668 26.9626 12.83 27.0428 12.962L28.2764 15.038C28.3504 15.17 28.517 15.218 28.6527 15.17L30.1886 14.564C30.5094 14.804 30.8425 15.008 31.2311 15.158L31.4593 16.748C31.484 16.892 31.6135 17 31.7677 17H34.235C34.3892 17 34.5188 16.892 34.5434 16.748L34.7717 15.158C35.1603 15.002 35.4934 14.804 35.8141 14.564L37.35 15.17C37.4857 15.218 37.6523 15.17 37.7263 15.038L38.96 12.962C39.034 12.83 39.0031 12.668 38.8859 12.578L37.5844 11.582Z" fill="black"/>
</g>
<defs>
<filter id="filter0_d_683_1705" x="21" y="0" width="24" height="24" filterUnits="userSpaceOnUse" color-interpolation-filters="sRGB">
<feFlood flood-opacity="0" result="BackgroundImageFix"/>
<feColorMatrix in="SourceAlpha" type="matrix" values="0 0 0 0 0 0 0 0 0 0 0 0 0 0 0 0 0 0 127 0" result="hardAlpha"/>
<feOffset dy="1"/>
<feGaussianBlur stdDeviation="2"/>
<feComposite in2="hardAlpha" operator="out"/>
<feColorMatrix type="matrix" values="0 0 0 0 0 0 0 0 0 0 0 0 0 0 0 0 0 0 0.25 0"/>
<feBlend mode="normal" in2="BackgroundImageFix" result="effect1_dropShadow_683_1705"/>
<feBlend mode="normal" in="SourceGraphic" in2="effect1_dropShadow_683_1705" result="shape"/>
</filter>
</defs>
</svg>
