<svg width="28" height="29" viewBox="0 0 28 29" fill="none" xmlns="http://www.w3.org/2000/svg">
<path d="M14 15.6667C12.4529 15.6667 10.9692 15.0521 9.87521 13.9581C8.78125 12.8642 8.16667 11.3804 8.16667 9.83335H10.5C10.5 10.7616 10.8687 11.6518 11.5251 12.3082C12.1815 12.9646 13.0717 13.3334 14 13.3334C14.9283 13.3334 15.8185 12.9646 16.4749 12.3082C17.1313 11.6518 17.5 10.7616 17.5 9.83335H19.8333C19.8333 11.3804 19.2188 12.8642 18.1248 13.9581C17.0308 15.0521 15.5471 15.6667 14 15.6667ZM14 4.00002C14.9283 4.00002 15.8185 4.36877 16.4749 5.02515C17.1313 5.68152 17.5 6.57176 17.5 7.50002H10.5C10.5 6.57176 10.8687 5.68152 11.5251 5.02515C12.1815 4.36877 13.0717 4.00002 14 4.00002ZM22.1667 7.50002H19.8333C19.8333 6.73398 19.6824 5.97543 19.3893 5.2677C19.0961 4.55997 18.6665 3.91691 18.1248 3.37523C17.5831 2.83356 16.9401 2.40388 16.2323 2.11072C15.5246 1.81757 14.766 1.66669 14 1.66669C12.4529 1.66669 10.9692 2.28127 9.87521 3.37523C8.78125 4.46919 8.16667 5.95292 8.16667 7.50002H5.83333C4.53833 7.50002 3.5 8.53835 3.5 9.83335V23.8334C3.5 24.4522 3.74583 25.0457 4.18342 25.4833C4.621 25.9209 5.21449 26.1667 5.83333 26.1667H22.1667C22.7855 26.1667 23.379 25.9209 23.8166 25.4833C24.2542 25.0457 24.5 24.4522 24.5 23.8334V9.83335C24.5 9.21451 24.2542 8.62102 23.8166 8.18344C23.379 7.74585 22.7855 7.50002 22.1667 7.50002Z" fill="white"/>
</svg>
