<svg width="25" height="25" viewBox="0 0 25 25" fill="none" xmlns="http://www.w3.org/2000/svg">
<path d="M1.13636 25C0.834981 25 0.545943 24.9177 0.332833 24.7712C0.119724 24.6247 0 24.426 0 24.2188L0 7.03125C0 6.82405 0.119724 6.62534 0.332833 6.47882C0.545943 6.33231 0.834981 6.25 1.13636 6.25C1.43775 6.25 1.72678 6.33231 1.93989 6.47882C2.153 6.62534 2.27273 6.82405 2.27273 7.03125L2.27273 24.2188C2.27273 24.426 2.153 24.6247 1.93989 24.7712C1.72678 24.9177 1.43775 25 1.13636 25ZM23.8636 25C23.5623 25 23.2732 24.9177 23.0601 24.7712C22.847 24.6247 22.7273 24.426 22.7273 24.2188V8.59375C22.7273 8.38655 22.847 8.18784 23.0601 8.04132C23.2732 7.89481 23.5623 7.8125 23.8636 7.8125C24.165 7.8125 24.4541 7.89481 24.6672 8.04132C24.8803 8.18784 25 8.38655 25 8.59375V24.2188C25 24.426 24.8803 24.6247 24.6672 24.7712C24.4541 24.9177 24.165 25 23.8636 25ZM11.3636 24.2188C11.3636 24.426 11.4834 24.6247 11.6965 24.7712C11.9096 24.9177 12.1986 25 12.5 25C12.8014 25 13.0904 24.9177 13.3035 24.7712C13.5166 24.6247 13.6364 24.426 13.6364 24.2188L13.6364 0.78125C13.6364 0.57405 13.5166 0.375335 13.3035 0.228822C13.0904 0.0823094 12.8014 0 12.5 0C12.1986 0 11.9096 0.0823094 11.6965 0.228822C11.4834 0.375335 11.3636 0.57405 11.3636 0.78125L11.3636 24.2188Z" fill="black"/>
</svg>
