<svg width="19" height="20" viewBox="0 0 19 20" fill="none" xmlns="http://www.w3.org/2000/svg">
<path fill-rule="evenodd" clip-rule="evenodd" d="M19 9.83337C19 11.0809 18.7543 12.3163 18.2769 13.4689C17.7994 14.6215 17.0997 15.6687 16.2175 16.5509C15.3354 17.433 14.2881 18.1328 13.1355 18.6102C11.9829 19.0877 10.7476 19.3334 9.5 19.3334C8.25244 19.3334 7.0171 19.0877 5.86451 18.6102C4.71191 18.1328 3.66464 17.433 2.78249 16.5509C1.90033 15.6687 1.20056 14.6215 0.723144 13.4689C0.245725 12.3163 -1.85901e-08 11.0809 0 9.83337C3.75443e-08 7.31382 1.00089 4.89746 2.78249 3.11586C4.56408 1.33426 6.98044 0.333374 9.5 0.333374C12.0196 0.333374 14.4359 1.33426 16.2175 3.11586C17.9991 4.89746 19 7.31382 19 9.83337ZM4.5315 14.8019C4.33361 14.6039 4.22245 14.3355 4.22245 14.0556C4.22245 13.7757 4.33361 13.5073 4.5315 13.3093L8.00745 9.83337L4.5315 6.35743C4.33922 6.15835 4.23283 5.89171 4.23523 5.61495C4.23764 5.33819 4.34865 5.07344 4.54436 4.87773C4.74007 4.68202 5.00481 4.57101 5.28158 4.56861C5.55834 4.5662 5.82498 4.6726 6.02406 4.86487L9.5 8.34082L12.9759 4.86487C13.0733 4.76406 13.1898 4.68364 13.3186 4.62832C13.4474 4.573 13.5859 4.54388 13.726 4.54267C13.8662 4.54145 14.0052 4.56815 14.1349 4.62123C14.2646 4.6743 14.3825 4.75268 14.4816 4.85179C14.5807 4.9509 14.6591 5.06875 14.7121 5.19848C14.7652 5.3282 14.7919 5.4672 14.7907 5.60735C14.7895 5.74751 14.7604 5.88602 14.7051 6.0148C14.6497 6.14358 14.5693 6.26006 14.4685 6.35743L10.9926 9.83337L14.4685 13.3093C14.6608 13.5084 14.7672 13.775 14.7648 14.0518C14.7624 14.3286 14.6514 14.5933 14.4556 14.789C14.2599 14.9847 13.9952 15.0957 13.7184 15.0981C13.4417 15.1005 13.175 14.9942 12.9759 14.8019L9.5 11.3259L6.02406 14.8019C5.82611 14.9998 5.55767 15.1109 5.27778 15.1109C4.99788 15.1109 4.72945 14.9998 4.5315 14.8019Z" fill="#A2A2A2"/>
</svg>
