<svg width="20" height="20" viewBox="0 0 20 20" fill="none" xmlns="http://www.w3.org/2000/svg">
<path d="M9.95516 12L11.2556 10.6818L9.55157 8.95455L8.25112 10.2727V10.9091H9.32735V12H9.95516ZM14.8879 3.81818C14.7683 3.69697 14.645 3.70076 14.5179 3.82955L10.5942 7.80682C10.4671 7.93561 10.4634 8.06061 10.583 8.18182C10.7025 8.30303 10.8259 8.29924 10.9529 8.17045L14.8767 4.19318C15.0037 4.06439 15.0075 3.93939 14.8879 3.81818ZM15.7848 10.5682V12.7273C15.7848 13.6288 15.469 14.3996 14.8374 15.0398C14.2059 15.6799 13.4454 16 12.5561 16H3.2287C2.33931 16 1.57885 15.6799 0.947309 15.0398C0.31577 14.3996 0 13.6288 0 12.7273V3.27273C0 2.37121 0.31577 1.60038 0.947309 0.960227C1.57885 0.320076 2.33931 0 3.2287 0H12.5561C13.0269 0 13.4641 0.094697 13.8677 0.284091C13.9798 0.337121 14.0471 0.424242 14.0695 0.545455C14.0919 0.674242 14.0583 0.784091 13.9686 0.875L13.4193 1.43182C13.3146 1.53788 13.1951 1.56818 13.0605 1.52273C12.8886 1.47727 12.7205 1.45455 12.5561 1.45455H3.2287C2.73543 1.45455 2.31315 1.63258 1.96188 1.98864C1.61061 2.3447 1.43498 2.77273 1.43498 3.27273V12.7273C1.43498 13.2273 1.61061 13.6553 1.96188 14.0114C2.31315 14.3674 2.73543 14.5455 3.2287 14.5455H12.5561C13.0493 14.5455 13.4716 14.3674 13.8229 14.0114C14.1741 13.6553 14.3498 13.2273 14.3498 12.7273V11.2955C14.3498 11.197 14.3834 11.1136 14.4507 11.0455L15.1682 10.3182C15.2803 10.2045 15.4111 10.178 15.5605 10.2386C15.71 10.2992 15.7848 10.4091 15.7848 10.5682ZM14.7085 2.18182L17.9372 5.45455L10.4036 13.0909H7.17489V9.81818L14.7085 2.18182ZM19.6861 3.68182L18.6547 4.72727L15.426 1.45455L16.4574 0.409091C16.6667 0.19697 16.9208 0.0909091 17.2197 0.0909091C17.5187 0.0909091 17.7728 0.19697 17.9821 0.409091L19.6861 2.13636C19.8954 2.34848 20 2.60606 20 2.90909C20 3.21212 19.8954 3.4697 19.6861 3.68182Z" fill="#777777"/>
</svg>
