<svg width="22" height="25" viewBox="0 0 22 25" fill="none" xmlns="http://www.w3.org/2000/svg">
<path d="M11 14.1667C9.4529 14.1667 7.96917 13.5521 6.87521 12.4581C5.78125 11.3642 5.16667 9.88042 5.16667 8.33332H7.5C7.5 9.26158 7.86875 10.1518 8.52513 10.8082C9.1815 11.4646 10.0717 11.8333 11 11.8333C11.9283 11.8333 12.8185 11.4646 13.4749 10.8082C14.1313 10.1518 14.5 9.26158 14.5 8.33332H16.8333C16.8333 9.88042 16.2188 11.3642 15.1248 12.4581C14.0308 13.5521 12.5471 14.1667 11 14.1667ZM11 2.49999C11.9283 2.49999 12.8185 2.86874 13.4749 3.52512C14.1313 4.18149 14.5 5.07173 14.5 5.99999H7.5C7.5 5.07173 7.86875 4.18149 8.52513 3.52512C9.1815 2.86874 10.0717 2.49999 11 2.49999ZM19.1667 5.99999H16.8333C16.8333 5.23395 16.6824 4.4754 16.3893 3.76767C16.0961 3.05994 15.6665 2.41688 15.1248 1.8752C14.5831 1.33353 13.9401 0.903845 13.2323 0.610693C12.5246 0.31754 11.766 0.166656 11 0.166656C9.4529 0.166656 7.96917 0.781238 6.87521 1.8752C5.78125 2.96916 5.16667 4.45289 5.16667 5.99999H2.83333C1.53833 5.99999 0.5 7.03832 0.5 8.33332V22.3333C0.5 22.9522 0.745833 23.5457 1.18342 23.9832C1.621 24.4208 2.21449 24.6667 2.83333 24.6667H19.1667C19.7855 24.6667 20.379 24.4208 20.8166 23.9832C21.2542 23.5457 21.5 22.9522 21.5 22.3333V8.33332C21.5 7.71448 21.2542 7.12099 20.8166 6.68341C20.379 6.24582 19.7855 5.99999 19.1667 5.99999Z" fill="#808080"/>
</svg>
