<svg width="25" height="24" viewBox="0 0 25 24" fill="none" xmlns="http://www.w3.org/2000/svg">
<path fill-rule="evenodd" clip-rule="evenodd" d="M21.8961 12.0431C22.8509 10.9158 23.3813 9.39376 23.3707 7.81186C23.36 6.22996 22.8092 4.71776 21.8394 3.60793C21.3592 3.0584 20.7906 2.62419 20.166 2.3301C19.5415 2.03601 18.8732 1.8878 18.1993 1.89392C16.8384 1.90628 15.5375 2.54654 14.5827 3.67386C14.3235 3.97523 13.994 4.34513 13.5943 4.78358L12.483 6.00004L11.3716 4.78358C10.971 4.34409 10.6411 3.97418 10.3818 3.67386C9.41954 2.55529 8.11438 1.92689 6.75349 1.92689C5.3926 1.92689 4.08745 2.55529 3.12515 3.67386C1.14286 5.97964 1.1199 9.70749 3.05223 12.0243L12.483 22.9865L21.8961 12.0431ZM1.97871 2.34282C2.60569 1.61383 3.35007 1.03556 4.16933 0.641026C4.9886 0.246491 5.8667 0.0434247 6.75349 0.0434247C7.64028 0.0434247 8.51839 0.246491 9.33765 0.641026C10.1569 1.03556 10.9013 1.61383 11.5283 2.34282C11.774 2.62954 12.0923 2.98636 12.483 3.4133C12.8719 2.98636 13.1901 2.62901 13.4376 2.34125C14.6941 0.858215 16.406 0.0161247 18.1966 0.000229163C19.9873 -0.0156663 21.71 0.795934 22.9858 2.25649C24.2617 3.71704 24.9861 5.70691 24.9998 7.78834C25.0135 9.86977 24.3153 11.8723 23.0588 13.3553L13.4376 24.5404C13.1844 24.8347 12.841 25 12.483 25C12.1249 25 11.7815 24.8347 11.5283 24.5404L1.90445 13.3537C0.670297 11.8742 -0.0136882 9.88978 0.000207661 7.82901C0.0141035 5.76825 0.724764 3.79654 1.97871 2.33968V2.34282Z" fill="black"/>
</svg>
