<svg width="40" height="32" viewBox="0 0 40 32" fill="none" xmlns="http://www.w3.org/2000/svg">
<path d="M7.27907 31.929V29.8052C7.27907 28.9909 6.79829 28.4601 5.97419 28.4601C5.56222 28.4601 5.11584 28.6017 4.80679 29.0619C4.56655 28.6725 4.22324 28.4601 3.7082 28.4601C3.36474 28.4601 3.02158 28.5662 2.74678 28.9556V28.5309H2.02576V31.929H2.74678V30.0529C2.74678 29.4513 3.05584 29.168 3.53662 29.168C4.0171 29.168 4.25765 29.4866 4.25765 30.0529V31.929H4.97868V30.0529C4.97868 29.4513 5.32183 29.168 5.76821 29.168C6.24899 29.168 6.48923 29.4866 6.48923 30.0529V31.929H7.27907ZM17.957 28.5309H16.7897V27.5044H16.0687V28.5309H15.4163V29.2033H16.0685V30.761C16.0685 31.5398 16.3776 31.9998 17.2017 31.9998C17.5107 31.9998 17.8539 31.8937 18.0944 31.7522L17.8883 31.1149C17.6823 31.2565 17.4421 31.292 17.2704 31.292C16.927 31.292 16.7897 31.0796 16.7897 30.7255V29.2033H17.957V28.5309ZM24.0686 28.4599C23.6567 28.4599 23.382 28.6725 23.2103 28.9556V28.5309H22.4893V31.929H23.2103V30.0176C23.2103 29.4513 23.4505 29.1327 23.8969 29.1327C24.0342 29.1327 24.206 29.1681 24.3433 29.2035L24.5493 28.4956C24.4119 28.4601 24.206 28.4601 24.0686 28.4601M14.8326 28.8142C14.4892 28.5664 14.0085 28.4603 13.4935 28.4603C12.6696 28.4603 12.1203 28.885 12.1203 29.5576C12.1203 30.124 12.5322 30.4425 13.2533 30.5488L13.5966 30.5842C13.9743 30.6549 14.1803 30.7611 14.1803 30.9382C14.1803 31.1859 13.9056 31.3629 13.4248 31.3629C12.944 31.3629 12.5665 31.1859 12.3261 31.009L11.9828 31.5753C12.3605 31.8584 12.8755 32 13.3904 32C14.3518 32 14.9013 31.54 14.9013 30.9027C14.9013 30.3009 14.4549 29.9823 13.7681 29.8762L13.4248 29.8407C13.1158 29.8052 12.8755 29.7346 12.8755 29.5223C12.8755 29.2744 13.1158 29.1328 13.4935 29.1328C13.9056 29.1328 14.3176 29.3097 14.5236 29.416L14.8326 28.8142ZM33.9914 28.4603C33.5793 28.4603 33.3046 28.6726 33.1329 28.9558V28.5311H32.4119V31.9292H33.1329V30.0178C33.1329 29.4515 33.3733 29.1328 33.8195 29.1328C33.957 29.1328 34.1287 29.1683 34.2661 29.2036L34.472 28.4957C34.3347 28.4603 34.1287 28.4603 33.9914 28.4603ZM24.7897 30.2301C24.7897 31.2566 25.4763 32 26.5408 32C27.0214 32 27.3647 31.8939 27.708 31.6107L27.3647 31.009C27.0901 31.2213 26.8154 31.3274 26.5064 31.3274C25.9227 31.3274 25.5107 30.9027 25.5107 30.2301C25.5107 29.593 25.9227 29.1681 26.5064 29.1328C26.8154 29.1328 27.0901 29.2389 27.3647 29.4515L27.708 28.8497C27.3647 28.5664 27.0214 28.4603 26.5408 28.4603C25.4763 28.4603 24.7897 29.2036 24.7897 30.2301ZM31.4506 30.2301V28.5311H30.7296V28.9558C30.4892 28.6373 30.1459 28.4603 29.6995 28.4603C28.7725 28.4603 28.0515 29.2036 28.0515 30.2301C28.0515 31.2566 28.7725 32 29.6995 32C30.1801 32 30.5236 31.8231 30.7296 31.5045V31.9292H31.4506V30.2301ZM28.8068 30.2301C28.8068 29.6284 29.1845 29.1328 29.8024 29.1328C30.3861 29.1328 30.7983 29.593 30.7983 30.2301C30.7983 30.8319 30.3861 31.3274 29.8024 31.3274C29.1845 31.292 28.8068 30.8319 28.8068 30.2301ZM20.1889 28.4603C19.2274 28.4603 18.5407 29.1681 18.5407 30.2301C18.5407 31.2921 19.2273 32 20.2231 32C20.7037 32 21.1845 31.8584 21.5623 31.54L21.2188 31.009C20.9441 31.2213 20.6008 31.3629 20.2575 31.3629C19.8111 31.3629 19.3648 31.1505 19.2617 30.5486H21.6996V30.2656C21.734 29.1681 21.116 28.4603 20.1889 28.4603ZM20.1887 29.0974C20.6349 29.0974 20.9441 29.3807 21.0126 29.9117H19.2959C19.3646 29.4515 19.6737 29.0974 20.1887 29.0974ZM38.077 30.2301V27.1859H37.356V28.9558C37.1156 28.6373 36.7723 28.4603 36.3259 28.4603C35.3989 28.4603 34.6779 29.2036 34.6779 30.2301C34.6779 31.2566 35.3989 32 36.3259 32C36.8067 32 37.15 31.8231 37.356 31.5045V31.9292H38.077V30.2301ZM35.4333 30.2301C35.4333 29.6284 35.8109 29.1328 36.429 29.1328C37.0127 29.1328 37.4246 29.593 37.4246 30.2301C37.4246 30.8319 37.0127 31.3274 36.429 31.3274C35.8109 31.292 35.4333 30.8319 35.4333 30.2301ZM11.3303 30.2301V28.5311H10.6092V28.9558C10.3688 28.6373 10.0255 28.4603 9.57916 28.4603C8.65215 28.4603 7.93112 29.2036 7.93112 30.2301C7.93112 31.2566 8.65215 32 9.57916 32C10.0599 32 10.4033 31.8231 10.6092 31.5045V31.9292H11.3303V30.2301ZM8.65215 30.2301C8.65215 29.6284 9.02987 29.1328 9.64782 29.1328C10.2315 29.1328 10.6436 29.593 10.6436 30.2301C10.6436 30.8319 10.2315 31.3274 9.64782 31.3274C9.02987 31.292 8.65215 30.8319 8.65215 30.2301Z" fill="black"/>
<path d="M14.5922 2.72559H25.4076V22.7609H14.5922V2.72559Z" fill="#FF5F00"/>
<path d="M15.279 12.7433C15.279 8.67261 17.133 5.06192 19.9827 2.72559C17.8885 1.02651 15.2448 0 12.3607 0C5.52781 0 0 5.69902 0 12.7433C0 19.7877 5.52781 25.4867 12.3605 25.4867C15.2446 25.4867 17.8883 24.4602 19.9827 22.7609C17.133 20.4601 15.279 16.8141 15.279 12.7433Z" fill="#EB001B"/>
<path d="M39.9998 12.7433C39.9998 19.7875 34.472 25.4867 27.6393 25.4867C24.7552 25.4867 22.1115 24.4602 20.0171 22.7609C22.9012 20.4247 24.721 16.8141 24.721 12.7433C24.721 8.67261 22.8668 5.06192 20.0171 2.72559C22.1114 1.02651 24.7552 0 27.6393 0C34.472 0 39.9998 5.73449 39.9998 12.7433Z" fill="#F79E1B"/>
</svg>
