<svg width="28" height="28" viewBox="0 0 28 28" fill="none" xmlns="http://www.w3.org/2000/svg">
<path d="M15.25 1.5C18.2337 1.5 21.0952 2.68526 23.205 4.79505C25.3147 6.90483 26.5 9.76631 26.5 12.75M15.25 6.5C16.9076 6.5 18.4973 7.15848 19.6694 8.33058C20.8415 9.50269 21.5 11.0924 21.5 12.75M16.29 19.71C16.5482 19.8286 16.839 19.8556 17.1146 19.7868C17.3902 19.718 17.6342 19.5573 17.8063 19.3312L18.25 18.75C18.4829 18.4395 18.7848 18.1875 19.132 18.0139C19.4791 17.8404 19.8619 17.75 20.25 17.75H24C24.663 17.75 25.2989 18.0134 25.7678 18.4822C26.2366 18.9511 26.5 19.587 26.5 20.25V24C26.5 24.663 26.2366 25.2989 25.7678 25.7678C25.2989 26.2366 24.663 26.5 24 26.5C18.0326 26.5 12.3097 24.1295 8.0901 19.9099C3.87053 15.6903 1.5 9.96737 1.5 4C1.5 3.33696 1.76339 2.70107 2.23223 2.23223C2.70107 1.76339 3.33696 1.5 4 1.5H7.75C8.41304 1.5 9.04893 1.76339 9.51777 2.23223C9.98661 2.70107 10.25 3.33696 10.25 4V7.75C10.25 8.13811 10.1596 8.5209 9.98607 8.86803C9.8125 9.21517 9.56049 9.51713 9.25 9.75L8.665 10.1888C8.43552 10.364 8.27377 10.6132 8.20724 10.8942C8.1407 11.1751 8.17348 11.4705 8.3 11.73C10.0084 15.1998 12.818 18.006 16.29 19.71Z" stroke="black" stroke-width="2" stroke-linecap="round" stroke-linejoin="round"/>
</svg>
