<svg width="51" height="50" viewBox="0 0 51 50" fill="none" xmlns="http://www.w3.org/2000/svg">
<circle cx="25.5" cy="25" r="25" fill="black"/>
<path d="M31.5 31.5C32.33 31.5 33 30.83 33 30C33 29.17 32.33 28.5 31.5 28.5C30.67 28.5 30 29.17 30 30C30 30.83 30.67 31.5 31.5 31.5ZM33 22.5H30.5V25H34.96L33 22.5ZM19.5 31.5C20.33 31.5 21 30.83 21 30C21 29.17 20.33 28.5 19.5 28.5C18.67 28.5 18 29.17 18 30C18 30.83 18.67 31.5 19.5 31.5ZM33.5 21L36.5 25V30H34.5C34.5 31.66 33.16 33 31.5 33C29.84 33 28.5 31.66 28.5 30H22.5C22.5 31.66 21.16 33 19.5 33C17.84 33 16.5 31.66 16.5 30H14.5V19C14.5 17.89 15.39 17 16.5 17H30.5V21H33.5ZM16.5 19V28H17.26C17.81 27.39 18.61 27 19.5 27C20.39 27 21.19 27.39 21.74 28H28.5V19H16.5Z" fill="white"/>
</svg>
