<svg width="51" height="50" viewBox="0 0 51 50" fill="none" xmlns="http://www.w3.org/2000/svg">
<circle cx="25.5" cy="25" r="25" fill="black"/>
<path d="M25.5 31L29.5 27L28.1 25.6L26.5 27.2V23H24.5V27.2L22.9 25.6L21.5 27L25.5 31ZM18.5 21V32H32.5V21H18.5ZM18.5 34C17.95 34 17.4793 33.8043 17.088 33.413C16.6967 33.0217 16.5007 32.5507 16.5 32V19.525C16.5 19.2917 16.5377 19.0667 16.613 18.85C16.6883 18.6333 16.8007 18.4333 16.95 18.25L18.2 16.725C18.3833 16.4917 18.6123 16.3123 18.887 16.187C19.1617 16.0617 19.4493 15.9993 19.75 16H31.25C31.55 16 31.8377 16.0627 32.113 16.188C32.3883 16.3133 32.6173 16.4923 32.8 16.725L34.05 18.25C34.2 18.4333 34.3127 18.6333 34.388 18.85C34.4633 19.0667 34.5007 19.2917 34.5 19.525V32C34.5 32.55 34.3043 33.021 33.913 33.413C33.5217 33.805 33.0507 34.0007 32.5 34H18.5ZM18.9 19H32.1L31.25 18H19.75L18.9 19Z" fill="white"/>
</svg>
