<svg width="17" height="14" viewBox="0 0 17 14" fill="none" xmlns="http://www.w3.org/2000/svg">
<mask id="path-1-inside-1_853_6771" fill="white">
<path d="M0.833984 9.33333H16.834V14H0.833984V9.33333Z"/>
</mask>
<path d="M0.833984 9.33333H16.834V14H0.833984V9.33333Z" fill="#DE2F34"/>
<path d="M16.834 14V14.5H17.334V14H16.834ZM0.833984 14H0.333984V14.5H0.833984V14ZM16.334 9.33333V14H17.334V9.33333H16.334ZM16.834 13.5H0.833984V14.5H16.834V13.5ZM1.33398 14V9.33333H0.333984V14H1.33398Z" fill="#747474" mask="url(#path-1-inside-1_853_6771)"/>
<mask id="path-3-inside-2_853_6771" fill="white">
<path d="M0.833984 4.66667H16.834V9.33334H0.833984V4.66667Z"/>
</mask>
<path d="M0.833984 4.66667H16.834V9.33334H0.833984V4.66667Z" fill="#2121FA"/>
<path d="M16.334 4.66667V9.33334H17.334V4.66667H16.334ZM1.33398 9.33334V4.66667H0.333984V9.33334H1.33398Z" fill="#747474" mask="url(#path-3-inside-2_853_6771)"/>
<mask id="path-5-inside-3_853_6771" fill="white">
<path d="M0.833984 0H16.834V4.66667H0.833984V0Z"/>
</mask>
<path d="M0.833984 0H16.834V4.66667H0.833984V0Z" fill="white"/>
<path d="M0.833984 0V-0.5H0.333984V0H0.833984ZM16.834 0H17.334V-0.5H16.834V0ZM0.833984 0.5H16.834V-0.5H0.833984V0.5ZM16.334 0V4.66667H17.334V0H16.334ZM1.33398 4.66667V0H0.333984V4.66667H1.33398Z" fill="#747474" mask="url(#path-5-inside-3_853_6771)"/>
</svg>
