<svg width="20" height="20" viewBox="0 0 20 20" fill="none" xmlns="http://www.w3.org/2000/svg">
<path d="M19 19L14.4439 14.4439M14.4439 14.4439C15.1751 13.7126 15.7552 12.8444 16.151 11.8889C16.5468 10.9335 16.7505 9.90942 16.7505 8.87523C16.7505 7.84104 16.5468 6.81697 16.151 5.86151C15.7552 4.90604 15.1751 4.03788 14.4439 3.3066C13.7126 2.57532 12.8444 1.99523 11.8889 1.59947C10.9335 1.2037 9.90942 1 8.87523 1C7.84104 1 6.81697 1.2037 5.86151 1.59947C4.90604 1.99523 4.03788 2.57532 3.3066 3.3066C1.82971 4.78349 1 6.78659 1 8.87523C1 10.9639 1.82971 12.967 3.3066 14.4439C4.78349 15.9207 6.78659 16.7505 8.87523 16.7505C10.9639 16.7505 12.967 15.9207 14.4439 14.4439Z" stroke="#777777" stroke-width="2" stroke-linecap="round" stroke-linejoin="round"/>
</svg>
