<svg width="40" height="40" viewBox="0 0 40 40" fill="none" xmlns="http://www.w3.org/2000/svg">
<circle cx="20" cy="20" r="20" fill="#747474"/>
<path d="M28.2767 28.9985H26.3058C25.5605 28.9985 25.3359 27.9823 23.9998 25.7319C22.8322 23.8376 22.339 23.6021 22.0437 23.6021C21.6351 23.6021 21.5237 23.7911 21.5237 24.7375V27.7207C21.5237 28.5275 21.3683 29 20.116 29C18.901 28.8626 17.7229 28.2413 16.6786 27.1874C15.6342 26.1334 14.7536 24.6768 14.1092 22.9377C12.5797 19.7316 11.5151 15.9695 11 11.95C11 11.4528 11.1123 11.0021 11.6754 11.0021H13.6445C14.1506 11.0021 14.3329 11.3816 14.5315 12.2582C15.4876 16.9946 17.119 21.1147 17.7815 21.1147C18.0354 21.1147 18.1459 20.9257 18.1459 19.86V14.9811C18.0622 12.7554 17.36 12.5678 17.36 11.7625C17.3689 11.55 17.4266 11.3517 17.521 11.2097C17.6153 11.0677 17.7388 10.9933 17.8653 11.0021H20.9606C21.3838 11.0021 21.5237 11.3568 21.5237 12.2088V18.7944C21.5237 19.5053 21.7051 19.7408 21.8329 19.7408C22.0868 19.7408 22.282 19.5053 22.7475 18.7232C23.745 16.6743 24.5602 14.3922 25.1675 11.9485C25.2294 11.6548 25.3468 11.4034 25.5017 11.2327C25.6566 11.062 25.8405 10.9815 26.0251 11.0036H27.9951C28.5859 11.0036 28.7111 11.5008 28.5859 12.2102C27.8692 14.9118 26.9826 17.4764 25.9414 19.86C25.7289 20.4052 25.6443 20.6887 25.9414 21.3284C26.1365 21.8256 26.8275 22.7967 27.2913 23.7198C27.9667 24.8538 28.5272 26.1651 28.9512 27.6015C29.1205 28.5261 28.8389 28.9985 28.2767 28.9985Z" fill="white"/>
</svg>
