<svg width="40" height="40" viewBox="0 0 40 40" fill="none" xmlns="http://www.w3.org/2000/svg">
<circle cx="20" cy="20" r="20" fill="#747474"/>
<path d="M17.8 24.1429L23.509 20.2L17.8 16.2571V24.1429ZM30.516 13.852C30.659 14.4697 30.758 15.2977 30.824 16.3491C30.901 17.4006 30.934 18.3074 30.934 19.096L31 20.2C31 23.0783 30.824 25.1943 30.516 26.548C30.241 27.7309 29.603 28.4931 28.613 28.8217C28.096 28.9926 27.15 29.1109 25.698 29.1897C24.268 29.2817 22.959 29.3211 21.749 29.3211L20 29.4C15.391 29.4 12.52 29.1897 11.387 28.8217C10.397 28.4931 9.759 27.7309 9.484 26.548C9.341 25.9303 9.242 25.1023 9.176 24.0509C9.099 22.9994 9.066 22.0926 9.066 21.304L9 20.2C9 17.3217 9.176 15.2057 9.484 13.852C9.759 12.6691 10.397 11.9069 11.387 11.5783C11.904 11.4074 12.85 11.2891 14.302 11.2103C15.732 11.1183 17.041 11.0789 18.251 11.0789L20 11C24.609 11 27.48 11.2103 28.613 11.5783C29.603 11.9069 30.241 12.6691 30.516 13.852Z" fill="white"/>
</svg>
