<svg width="40" height="40" viewBox="0 0 40 40" fill="none" xmlns="http://www.w3.org/2000/svg">
<circle cx="20" cy="20" r="20" fill="#747474"/>
<path fill-rule="evenodd" clip-rule="evenodd" d="M25.2632 27.8199V27.8178L25.2795 27.7734L28 12.1618V12.1122C28 11.7229 27.873 11.3832 27.599 11.1798C27.3587 11.0012 27.082 10.9888 26.8879 11.0053C26.7072 11.0241 26.5289 11.0657 26.3563 11.1292C26.2826 11.156 26.21 11.1863 26.1386 11.2201L26.1268 11.2253L10.9595 17.9975L10.955 17.9996C10.9085 18.0164 10.8633 18.0375 10.8198 18.0626C10.712 18.1179 10.6085 18.1835 10.5105 18.2588C10.3155 18.4116 9.94443 18.7709 10.007 19.3409C10.0587 19.8137 10.3445 20.1132 10.5377 20.2691C10.6515 20.3605 10.7742 20.4367 10.9033 20.4962L10.9323 20.5107L10.9414 20.5138L10.9477 20.5169L13.602 21.5339C13.5923 21.7239 13.6096 21.9149 13.6537 22.107L14.9826 27.8467C15.0552 28.1596 15.2121 28.4387 15.4312 28.6449C15.6504 28.8511 15.9207 28.974 16.2044 28.9963C16.488 29.0186 16.7706 28.9393 17.0126 28.7694C17.2546 28.5995 17.4437 28.3476 17.5535 28.0491L19.629 25.5236L23.1931 28.6335L23.2439 28.6583C23.5677 28.8193 23.8698 28.8699 24.1465 28.8276C24.4232 28.7842 24.6427 28.6521 24.8078 28.5024C24.9988 28.3262 25.151 28.1017 25.2523 27.8467L25.2596 27.8292L25.2623 27.823L25.2632 27.8199ZM14.969 21.7125C14.9543 21.6489 14.9578 21.5815 14.979 21.5202C15.0002 21.4589 15.038 21.407 15.087 21.3718L24.0866 14.867C24.0866 14.867 24.6164 14.5004 24.5973 14.867C24.5973 14.867 24.6917 14.931 24.4078 15.2314C24.1392 15.5174 17.9934 22.2711 17.3711 22.9547C17.3374 22.9936 17.3133 23.0421 17.3013 23.0951L16.298 27.4523L14.969 21.7125Z" fill="white"/>
</svg>
