<svg width="17" height="15" viewBox="0 0 17 15" fill="none" xmlns="http://www.w3.org/2000/svg">
<path d="M16.2917 0.5H4.95833C4.77047 0.5 4.5903 0.561458 4.45747 0.670854C4.32463 0.780251 4.25 0.928624 4.25 1.08333V4H0.708333C0.520472 4 0.340304 4.06146 0.207466 4.17085C0.0746279 4.28025 0 4.42862 0 4.58333V13.9167C0 14.0714 0.0746279 14.2197 0.207466 14.3291C0.340304 14.4385 0.520472 14.5 0.708333 14.5H12.0417C12.2295 14.5 12.4097 14.4385 12.5425 14.3291C12.6754 14.2197 12.75 14.0714 12.75 13.9167V11H16.2917C16.4795 11 16.6597 10.9385 16.7925 10.8291C16.9254 10.7197 17 10.5714 17 10.4167V1.08333C17 0.928624 16.9254 0.780251 16.7925 0.670854C16.6597 0.561458 16.4795 0.5 16.2917 0.5ZM11.3333 13.3333H1.41667V5.16667H11.3333V13.3333ZM15.5833 9.83333H12.75V4.58333C12.75 4.42862 12.6754 4.28025 12.5425 4.17085C12.4097 4.06146 12.2295 4 12.0417 4H5.66667V1.66667H15.5833V9.83333Z" fill="#777777"/>
</svg>
