<svg width="40" height="32" viewBox="0 0 40 32" fill="none" xmlns="http://www.w3.org/2000/svg">
<path d="M20.687 10.1891C20.6642 14.629 22.2906 17.1065 23.5158 18.5797C24.7745 20.091 25.1973 21.0603 25.1923 22.412C25.183 24.4804 24.1883 25.3934 23.2575 25.4288C21.6336 25.4909 20.6894 24.347 19.9388 23.4818L19.3538 30.2362C20.1069 31.0924 21.5014 31.8392 22.9475 31.872C26.342 31.872 28.5628 27.7375 28.5748 21.327C28.5881 13.1913 24.0142 12.741 24.0455 9.10459C24.0563 8.00194 24.4827 6.82526 25.417 6.52608C25.8795 6.37495 27.1562 6.25929 28.6037 7.90401L29.1719 1.36907C28.3934 0.669699 27.393 1.14441e-05 26.1473 1.14441e-05C22.9523 1.14441e-05 20.7052 4.19085 20.687 10.1891ZM34.6309 0.562902C34.0111 0.562902 33.4888 1.45505 33.2556 2.82411L28.4067 31.392H31.7987L32.4738 26.789H36.6188L37.0103 31.392H40L37.3911 0.562902H34.6309ZM35.1055 8.891L36.0844 20.4677H33.4034L35.1055 8.891ZM16.5744 0.563288L13.9006 31.3916H17.133L19.8055 0.562517L16.5744 0.563288ZM11.7927 0.563288L8.42828 21.5464L7.06734 3.70469C6.90766 1.71297 6.27703 0.562902 5.57672 0.562902H0.0770312L0 1.45813C1.12906 2.06266 2.41188 3.0377 3.18906 4.08097C3.66469 4.71828 3.80031 5.27538 3.95656 6.78979L6.53422 31.392H9.95L15.1869 0.562902L11.7927 0.563288Z" fill="url(#paint0_linear_219_448)"/>
<defs>
<linearGradient id="paint0_linear_219_448" x1="1838.96" y1="95.8072" x2="2065.68" y2="-3164.33" gradientUnits="userSpaceOnUse">
<stop stop-color="#222357"/>
<stop offset="1" stop-color="#254AA5"/>
</linearGradient>
</defs>
</svg>
